<svg width="25" height="25" viewBox="0 0 25 25" fill="none" xmlns="http://www.w3.org/2000/svg">
<path d="M11.25 5.625C11.25 4.58984 10.4102 3.75 9.375 3.75H5.625C4.58984 3.75 3.75 4.58984 3.75 5.625V9.375C3.75 10.4102 4.58984 11.25 5.625 11.25H9.375C10.4102 11.25 11.25 10.4102 11.25 9.375V5.625ZM11.25 15.625C11.25 14.5898 10.4102 13.75 9.375 13.75H5.625C4.58984 13.75 3.75 14.5898 3.75 15.625V19.375C3.75 20.4102 4.58984 21.25 5.625 21.25H9.375C10.4102 21.25 11.25 20.4102 11.25 19.375V15.625ZM13.75 5.625V9.375C13.75 10.4102 14.5898 11.25 15.625 11.25H19.375C20.4102 11.25 21.25 10.4102 21.25 9.375V5.625C21.25 4.58984 20.4102 3.75 19.375 3.75H15.625C14.5898 3.75 13.75 4.58984 13.75 5.625ZM21.25 15.625C21.25 14.5898 20.4102 13.75 19.375 13.75H15.625C14.5898 13.75 13.75 14.5898 13.75 15.625V19.375C13.75 20.4102 14.5898 21.25 15.625 21.25H19.375C20.4102 21.25 21.25 20.4102 21.25 19.375V15.625Z" fill="black"/>
</svg>
