<svg width="25" height="25" viewBox="0 0 25 25" fill="none" xmlns="http://www.w3.org/2000/svg">
<path d="M21.168 10.6288C20.6133 6.4491 17.3008 3.14051 13.1211 2.58191C12.4375 2.49207 11.875 3.05848 11.875 3.74988V10.6249C11.875 11.3163 12.4336 11.8749 13.125 11.8749H15.2266C16.4141 11.0858 17.8398 10.6249 19.375 10.6249C19.9961 10.6249 20.5977 10.6991 21.1758 10.8436C21.1797 10.7733 21.1797 10.703 21.168 10.6288ZM10.625 22.4999C11.4688 22.4999 12.2852 22.3866 13.0625 22.1796C12.3086 21.0116 11.875 19.6171 11.875 18.1249C11.875 16.4921 12.3984 14.9804 13.2812 13.7499H10.9375C10.418 13.7499 10 13.3319 10 12.8124V5.10535C10 4.38269 9.38672 3.80457 8.67969 3.95301C4.43359 4.84754 1.25 8.61316 1.25 13.1249C1.25 18.3007 5.44922 22.4999 10.625 22.4999ZM25 18.1249C25 16.633 24.4074 15.2023 23.3525 14.1474C22.2976 13.0925 20.8668 12.4999 19.375 12.4999C17.8832 12.4999 16.4524 13.0925 15.3975 14.1474C14.3426 15.2023 13.75 16.633 13.75 18.1249C13.75 19.6167 14.3426 21.0475 15.3975 22.1024C16.4524 23.1572 17.8832 23.7499 19.375 23.7499C20.8668 23.7499 22.2976 23.1572 23.3525 22.1024C24.4074 21.0475 25 19.6167 25 18.1249ZM18.75 14.9999C18.75 14.6561 19.0312 14.3749 19.375 14.3749C19.7188 14.3749 20 14.6561 20 14.9999V15.3124H20.625C20.9688 15.3124 21.25 15.5936 21.25 15.9374C21.25 16.2811 20.9688 16.5624 20.625 16.5624H18.8359C18.6172 16.5624 18.4375 16.7421 18.4375 16.9608C18.4375 17.1522 18.5742 17.3163 18.7617 17.3514L20.5195 17.6718C21.3008 17.8124 21.8711 18.496 21.8711 19.2929C21.8711 20.203 21.1328 20.9413 20.2227 20.9413H19.9961V21.2538C19.9961 21.5975 19.7148 21.8788 19.3711 21.8788C19.0273 21.8788 18.7461 21.5975 18.7461 21.2538V20.9413H18.1211C17.7773 20.9413 17.4961 20.66 17.4961 20.3163C17.4961 19.9725 17.7773 19.6913 18.1211 19.6913H20.2227C20.4414 19.6913 20.6211 19.5116 20.6211 19.2929C20.6211 19.1014 20.4844 18.9374 20.2969 18.9022L18.5391 18.5819C17.7578 18.4413 17.1875 17.7577 17.1875 16.9608C17.1875 16.078 17.8789 15.3593 18.75 15.3163V14.9999Z" fill="black"/>
</svg>
