<svg width="20" height="20" viewBox="0 0 20 20" fill="none" xmlns="http://www.w3.org/2000/svg">
<path d="M8.0968 2.29688C8.19055 1.83437 8.59993 1.5 9.07493 1.5H10.9437C11.4187 1.5 11.8281 1.83437 11.9218 2.29688L12.3749 4.48438C12.8156 4.67188 13.2281 4.9125 13.6031 5.19688L15.7218 4.49375C16.1718 4.34375 16.6656 4.53125 16.9031 4.94375L17.8374 6.5625C18.0749 6.975 17.9906 7.49375 17.6343 7.80937L15.9687 9.29063C15.9968 9.52188 16.0093 9.75937 16.0093 10C16.0093 10.2406 15.9937 10.4781 15.9687 10.7094L17.6374 12.1938C17.9937 12.5094 18.0749 13.0312 17.8406 13.4406L16.9062 15.0594C16.6687 15.4688 16.1749 15.6594 15.7249 15.5094L13.6062 14.8062C13.2281 15.0906 12.8156 15.3281 12.3781 15.5188L11.9281 17.7031C11.8312 18.1688 11.4218 18.5 10.9499 18.5H9.08118C8.60618 18.5 8.1968 18.1656 8.10305 17.7031L7.65305 15.5188C7.21243 15.3313 6.80305 15.0906 6.42493 14.8062L4.2968 15.5094C3.8468 15.6594 3.35305 15.4719 3.11555 15.0594L2.18118 13.4406C1.94368 13.0281 2.02805 12.5094 2.3843 12.1938L4.05305 10.7094C4.02493 10.4781 4.01243 10.2406 4.01243 10C4.01243 9.75937 4.02805 9.52188 4.05305 9.29063L2.3843 7.80625C2.02805 7.49062 1.9468 6.96875 2.18118 6.55937L3.11555 4.94062C3.35305 4.52813 3.8468 4.34062 4.2968 4.49062L6.41555 5.19375C6.79368 4.90937 7.20618 4.67188 7.64368 4.48125L8.0968 2.29688ZM10.0093 12.5C10.3376 12.4988 10.6625 12.4329 10.9653 12.3061C11.2681 12.1793 11.543 11.9942 11.7743 11.7611C12.0056 11.5281 12.1887 11.2518 12.3132 10.948C12.4377 10.6443 12.5012 10.3189 12.4999 9.99063C12.4987 9.66232 12.4328 9.33747 12.306 9.03463C12.1793 8.73179 11.9941 8.45688 11.7611 8.2256C11.528 7.99433 11.2518 7.81121 10.948 7.68671C10.6442 7.56221 10.3189 7.49877 9.99055 7.5C9.66225 7.50123 9.3374 7.56711 9.03456 7.69389C8.73171 7.82066 8.45681 8.00585 8.22553 8.23886C7.99425 8.47188 7.81114 8.74817 7.68664 9.05195C7.56214 9.35574 7.4987 9.68107 7.49993 10.0094C7.50116 10.3377 7.56704 10.6625 7.69382 10.9654C7.82059 11.2682 8.00577 11.5431 8.23879 11.7744C8.47181 12.0057 8.74809 12.1888 9.05188 12.3133C9.35566 12.4378 9.681 12.5012 10.0093 12.5Z" fill="#C8CEBB"/>
</svg>
