<svg width="104" height="36" viewBox="0 0 104 36" fill="none" xmlns="http://www.w3.org/2000/svg">
<path d="M0 18C0 8.05888 8.05888 0 18 0H86C95.9411 0 104 8.05888 104 18C104 27.9411 95.9411 36 86 36H18C8.05888 36 0 27.9411 0 18Z" fill="#EDF0E7"/>
<path d="M4 18C4 10.8203 9.8203 5 17 5C24.1797 5 30 10.8203 30 18C30 25.1797 24.1797 31 17 31C9.8203 31 4 25.1797 4 18Z" fill="white"/>
<path d="M15.74 12.6901C15.74 11.9448 15.1353 11.3401 14.39 11.3401H11.69C10.9447 11.3401 10.34 11.9448 10.34 12.6901V15.3901C10.34 16.1354 10.9447 16.7401 11.69 16.7401H14.39C15.1353 16.7401 15.74 16.1354 15.74 15.3901V12.6901ZM15.74 19.8901C15.74 19.1448 15.1353 18.5401 14.39 18.5401H11.69C10.9447 18.5401 10.34 19.1448 10.34 19.8901V22.5901C10.34 23.3354 10.9447 23.9401 11.69 23.9401H14.39C15.1353 23.9401 15.74 23.3354 15.74 22.5901V19.8901ZM17.54 12.6901V15.3901C17.54 16.1354 18.1447 16.7401 18.89 16.7401H21.59C22.3353 16.7401 22.94 16.1354 22.94 15.3901V12.6901C22.94 11.9448 22.3353 11.3401 21.59 11.3401H18.89C18.1447 11.3401 17.54 11.9448 17.54 12.6901ZM22.94 19.8901C22.94 19.1448 22.3353 18.5401 21.59 18.5401H18.89C18.1447 18.5401 17.54 19.1448 17.54 19.8901V22.5901C17.54 23.3354 18.1447 23.9401 18.89 23.9401H21.59C22.3353 23.9401 22.94 23.3354 22.94 22.5901V19.8901Z" fill="#A8E766"/>
<path d="M38 18C38 10.8203 43.8203 5 51 5C58.1797 5 64 10.8203 64 18C64 25.1797 58.1797 31 51 31C43.8203 31 38 25.1797 38 18Z" fill="#EDF0E7"/>
<path d="M56.881 16.2927C56.4816 13.2833 54.0966 10.9011 51.0872 10.499C50.595 10.4343 50.19 10.8421 50.19 11.3399V16.2899C50.19 16.7877 50.5922 17.1899 51.09 17.1899H52.6032C53.4582 16.6218 54.4847 16.2899 55.59 16.2899C56.0372 16.2899 56.4704 16.3433 56.8866 16.4474C56.8894 16.3968 56.8894 16.3461 56.881 16.2927ZM49.29 24.8399C49.8975 24.8399 50.4854 24.7583 51.045 24.6093C50.5022 23.7683 50.19 22.7643 50.19 21.6899C50.19 20.5143 50.5669 19.4258 51.2025 18.5399H49.515C49.141 18.5399 48.84 18.239 48.84 17.8649V12.3158C48.84 11.7955 48.3985 11.3793 47.8894 11.4861C44.8322 12.1302 42.54 14.8415 42.54 18.0899C42.54 21.8165 45.5635 24.8399 49.29 24.8399ZM59.64 21.6899C59.64 20.6158 59.2133 19.5856 58.4538 18.8261C57.6943 18.0666 56.6642 17.6399 55.59 17.6399C54.5159 17.6399 53.4858 18.0666 52.7263 18.8261C51.9667 19.5856 51.54 20.6158 51.54 21.6899C51.54 22.764 51.9667 23.7942 52.7263 24.5537C53.4858 25.3132 54.5159 25.7399 55.59 25.7399C56.6642 25.7399 57.6943 25.3132 58.4538 24.5537C59.2133 23.7942 59.64 22.764 59.64 21.6899ZM55.14 19.4399C55.14 19.1924 55.3425 18.9899 55.59 18.9899C55.8375 18.9899 56.04 19.1924 56.04 19.4399V19.6649H56.49C56.7375 19.6649 56.94 19.8674 56.94 20.1149C56.94 20.3624 56.7375 20.5649 56.49 20.5649H55.2019C55.0444 20.5649 54.915 20.6943 54.915 20.8518C54.915 20.9896 55.0135 21.1077 55.1485 21.133L56.4141 21.3636C56.9766 21.4649 57.3872 21.9571 57.3872 22.5308C57.3872 23.1861 56.8557 23.7177 56.2004 23.7177H56.0372V23.9427C56.0372 24.1902 55.8347 24.3927 55.5872 24.3927C55.3397 24.3927 55.1372 24.1902 55.1372 23.9427V23.7177H54.6872C54.4397 23.7177 54.2372 23.5152 54.2372 23.2677C54.2372 23.0202 54.4397 22.8177 54.6872 22.8177H56.2004C56.3579 22.8177 56.4872 22.6883 56.4872 22.5308C56.4872 22.393 56.3888 22.2749 56.2538 22.2496L54.9882 22.019C54.4257 21.9177 54.015 21.4255 54.015 20.8518C54.015 20.2161 54.5129 19.6986 55.14 19.6677V19.4399Z" fill="#C8CEBB"/>
<path d="M72 18C72 10.268 78.268 4 86 4C93.732 4 100 10.268 100 18C100 25.732 93.732 32 86 32C78.268 32 72 25.732 72 18Z" fill="#EDF0E7"/>
<path d="M79.25 11.5C78.8344 11.5 78.5 11.8344 78.5 12.25V13.75C78.5 14.1656 78.8344 14.5 79.25 14.5H80.75C81.1656 14.5 81.5 14.1656 81.5 13.75V12.25C81.5 11.8344 81.1656 11.5 80.75 11.5H79.25ZM84 12C83.4469 12 83 12.4469 83 13C83 13.5531 83.4469 14 84 14H93C93.5531 14 94 13.5531 94 13C94 12.4469 93.5531 12 93 12H84ZM84 17C83.4469 17 83 17.4469 83 18C83 18.5531 83.4469 19 84 19H93C93.5531 19 94 18.5531 94 18C94 17.4469 93.5531 17 93 17H84ZM84 22C83.4469 22 83 22.4469 83 23C83 23.5531 83.4469 24 84 24H93C93.5531 24 94 23.5531 94 23C94 22.4469 93.5531 22 93 22H84ZM78.5 17.25V18.75C78.5 19.1656 78.8344 19.5 79.25 19.5H80.75C81.1656 19.5 81.5 19.1656 81.5 18.75V17.25C81.5 16.8344 81.1656 16.5 80.75 16.5H79.25C78.8344 16.5 78.5 16.8344 78.5 17.25ZM79.25 21.5C78.8344 21.5 78.5 21.8344 78.5 22.25V23.75C78.5 24.1656 78.8344 24.5 79.25 24.5H80.75C81.1656 24.5 81.5 24.1656 81.5 23.75V22.25C81.5 21.8344 81.1656 21.5 80.75 21.5H79.25Z" fill="#C8CEBB"/>
</svg>
